<svg width="274" height="304" viewBox="0 0 274 304" fill="none" xmlns="http://www.w3.org/2000/svg">
<path fill-rule="evenodd" clip-rule="evenodd" d="M273.654 89.2448C273.654 84.15 272.545 79.6458 270.325 75.7851C268.138 71.9877 264.862 68.8021 260.456 66.281C244.258 57.0461 228.052 47.8237 211.845 38.6008C191.732 27.1548 171.617 15.7081 151.516 4.23545C141.731 -1.34464 132.246 -1.14422 122.536 4.52026C113.977 9.51322 85.0964 25.9269 58.4941 41.0455L58.4933 41.046L58.4894 41.0482C40.1886 51.4489 22.967 61.2364 14.1829 66.2705C5.29488 71.3548 0.973561 79.129 0.973561 89.2343C0.968226 110.046 0.968226 130.856 0.968226 151.665C0.968226 172.474 0.968226 193.284 0.962891 214.095C0.962891 219.074 2.01921 223.494 4.1532 227.302C6.34053 231.215 9.66955 234.485 14.1723 237.059C22.5134 241.833 38.4536 250.892 55.7022 260.694L55.727 260.708L55.7397 260.716C83.0737 276.25 113.681 293.644 122.536 298.81C132.256 304.474 141.742 304.685 151.526 299.094C172.744 286.981 193.98 274.897 215.218 262.811L215.222 262.809C230.305 254.226 245.388 245.643 260.466 237.049C264.969 234.475 268.287 231.205 270.485 227.292C272.609 223.484 273.676 219.074 273.676 214.085C273.67 214.085 273.667 187.862 273.664 157.493V157.253C273.662 133.587 273.659 107.441 273.654 89.2448ZM138.047 51.4717C175.542 51.4717 208.288 71.6085 225.818 101.534L225.648 101.249L181.527 126.365C172.831 111.819 156.901 101.998 138.624 101.798H138.047C110.167 101.798 87.568 124.139 87.568 151.692C87.568 160.7 90.0007 169.149 94.226 176.449C102.922 191.47 119.279 201.596 138.047 201.596C156.769 201.596 173.108 191.509 181.816 176.534L225.872 201.765C208.533 231.438 176.235 251.511 139.178 251.912L138.047 251.923C100.436 251.923 67.5939 231.67 50.1059 201.586C41.5699 186.902 36.6831 169.877 36.6831 151.713C36.6831 96.3339 82.0623 51.4717 138.047 51.4717ZM181.816 176.534L181.815 176.533L182.029 176.164C181.958 176.288 181.888 176.411 181.816 176.534ZM216.385 137.05V122.842H209.194V137.05H194.821V144.16H209.194V158.369H194.821V165.478H209.194V179.687H216.385V165.478H230.758V179.687H237.949V165.478H252.322V158.369H237.949V144.16H252.322V137.05H237.949V122.842H230.758V137.05H216.385ZM216.396 144.16H230.768V158.369H216.396V144.16Z" fill="white"/>
</svg>
