<svg width="248" height="247" viewBox="0 0 248 247" fill="none" xmlns="http://www.w3.org/2000/svg">
<g clip-path="url(#clip0_15192_150)">
<path d="M123.39 0.567383C60.6958 0.567383 64.6096 27.7553 64.6096 27.7553L64.6789 55.9236H124.508V64.3801H40.9166C40.9166 64.3801 0.797852 59.8305 0.797852 123.09C0.797852 186.351 35.8144 184.107 35.8144 184.107H56.7126V154.751C56.7126 154.751 55.5856 119.734 91.1706 119.734H150.51C150.51 119.734 183.849 120.273 183.849 87.5135V33.3477C183.848 33.3477 188.911 0.567383 123.39 0.567383ZM90.4011 19.5097C96.3402 19.5047 101.159 24.3148 101.164 30.2539C101.164 30.2608 101.164 30.2668 101.164 30.2737C101.169 36.2128 96.359 41.0318 90.4199 41.0368C90.413 41.0368 90.407 41.0368 90.4001 41.0368C84.461 41.0417 79.642 36.2316 79.6371 30.2925C79.6371 30.2856 79.6371 30.2796 79.6371 30.2727C79.6321 24.3336 84.4422 19.5146 90.3813 19.5097C90.3882 19.5097 90.3942 19.5097 90.4011 19.5097Z" fill="white"/>
<path d="M125.163 246.251C187.859 246.251 183.944 219.063 183.944 219.063L183.875 190.896H124.045V182.439H207.637C207.637 182.439 247.756 186.989 247.756 123.728C247.756 60.4674 212.739 62.7115 212.739 62.7115H191.841V92.0665C191.841 92.0665 192.968 127.083 157.383 127.083H98.0439C98.0439 127.083 64.705 126.545 64.705 159.305V213.473C64.705 213.472 59.6423 246.251 125.163 246.251ZM158.153 227.311C152.214 227.316 147.395 222.506 147.39 216.566C147.39 216.56 147.39 216.554 147.39 216.547C147.384 210.608 152.194 205.788 158.133 205.783C158.14 205.783 158.147 205.783 158.154 205.783C164.093 205.778 168.912 210.588 168.917 216.527C168.917 216.533 168.917 216.54 168.917 216.547C168.922 222.486 164.112 227.305 158.173 227.31C158.166 227.31 158.16 227.31 158.153 227.311Z" fill="white"/>
</g>
<defs>
<clipPath id="clip0_15192_150">
<rect width="246.965" height="245.68" fill="white" transform="translate(0.797852 0.567383)"/>
</clipPath>
</defs>
</svg>
